<svg xmlns="http://www.w3.org/2000/svg" width="30" height="30" viewBox="0 0 30 30">
    <g fill="none" fill-rule="evenodd">
        <g>
            <g>
                <g>
                    <g>
                        <g>
                            <path fill="#00D3FF" fill-rule="nonzero" stroke="#00D3FF" stroke-linejoin="round" stroke-width="2" d="M10.702 1.87L9.412 0 8.12 1.87C7.29 3.074 0 13.76 0 18.446c0 5.198 4.213 9.411 9.411 9.411 5.198 0 9.411-4.213 9.411-9.411 0-4.685-7.289-15.372-8.12-16.576z" transform="translate(-125 -416) translate(90 381) translate(20 20) translate(15 15) translate(5.357 1.071)"/>
                            <g>
                                <path stroke="#FFF" stroke-width="1.8" d="M7.537 2.585l5.114 8.72H2.436l5.101-8.72z" transform="translate(-125 -416) translate(90 381) translate(20 20) translate(15 15) translate(5.357 1.071) translate(1.943 10.786)"/>
                                <path fill="#FFF" d="M7.543 5.835L5.454 9.604 9.668 9.621z" transform="translate(-125 -416) translate(90 381) translate(20 20) translate(15 15) translate(5.357 1.071) translate(1.943 10.786)"/>
                                <path fill="#FFF" d="M0.561 8.127L7.676 5.064 7.676 8.586 0.561 8.443z" transform="translate(-125 -416) translate(90 381) translate(20 20) translate(15 15) translate(5.357 1.071) translate(1.943 10.786) matrix(-1 0 0 1 8.237 0)"/>
                                <path fill="#FFF" d="M7.676 8.127L14.792 5.064 14.792 8.586 7.676 8.443z" transform="translate(-125 -416) translate(90 381) translate(20 20) translate(15 15) translate(5.357 1.071) translate(1.943 10.786)"/>
                            </g>
                        </g>
                    </g>
                </g>
            </g>
        </g>
    </g>
</svg>
