<svg width="87" height="60" xmlns="http://www.w3.org/2000/svg" xmlns:xlink="http://www.w3.org/1999/xlink">
    <defs>
        <filter x=".4%" y="-3.3%" width="99.1%" height="106.7%" filterUnits="objectBoundingBox" id="b">
            <feOffset dx="-3" dy="-4" in="SourceAlpha" result="shadowOffsetInner1"/>
            <feComposite in="shadowOffsetInner1" in2="SourceAlpha" operator="arithmetic" k2="-1" k3="1" result="shadowInnerInner1"/>
            <feColorMatrix values="0 0 0 0 0 0 0 0 0 0 0 0 0 0 0 0 0 0 0.3 0" in="shadowInnerInner1"/>
        </filter>
        <filter x="-12.9%" y="-16.5%" width="125.8%" height="133.1%" filterUnits="objectBoundingBox" id="c">
            <feOffset dx="2" dy="2" in="SourceAlpha" result="shadowOffsetOuter1"/>
            <feColorMatrix values="0 0 0 0 0 0 0 0 0 0 0 0 0 0 0 0 0 0 0.3 0" in="shadowOffsetOuter1" result="shadowMatrixOuter1"/>
            <feMerge>
                <feMergeNode in="shadowMatrixOuter1"/>
                <feMergeNode in="SourceGraphic"/>
            </feMerge>
        </filter>
        <path d="M32.217 0h26.566a12 12 0 0 1 8.941 3.997L86.821 25.33a7 7 0 0 1 0 9.338L67.724 56.003A12 12 0 0 1 58.784 60H32.216a12 12 0 0 1-8.941-3.997L4.179 34.67a7 7 0 0 1 0-9.338L23.276 3.997A12 12 0 0 1 32.216 0z" id="a"/>
    </defs>
    <g fill="none" fill-rule="evenodd">
        <g transform="translate(-2)">
            <use fill-opacity=".1" fill="#FFF" xlink:href="#a"/>
            <use fill="#000" filter="url(#b)" xlink:href="#a"/>
        </g>
        <g filter="url(#c)" transform="translate(28 17)" fill-rule="nonzero">
            <path d="M29.881 9.379a3.803 3.803 0 0 0-2.708-1.121H13.065l1.724-1.724a3.801 3.801 0 0 0 1.123-2.707A3.831 3.831 0 0 0 12.084 0a3.801 3.801 0 0 0-2.705 1.12L1.126 9.374A3.81 3.81 0 0 0 0 12.085a3.8 3.8 0 0 0 1.125 2.71l8.252 8.252a3.801 3.801 0 0 0 2.708 1.122 3.831 3.831 0 0 0 3.827-3.826 3.802 3.802 0 0 0-1.121-2.706l-1.725-1.726h14.11a3.801 3.801 0 0 0 2.705-1.12 3.831 3.831 0 0 0 0-5.412z" fill="#FFE300"/>
            <path d="m1.125 14.795 8.252 8.251a3.801 3.801 0 0 0 2.708 1.123 3.831 3.831 0 0 0 3.827-3.826 3.802 3.802 0 0 0-1.121-2.707l-1.725-1.725h14.11a3.801 3.801 0 0 0 2.705-1.12A3.814 3.814 0 0 0 31 12.084H0a3.8 3.8 0 0 0 1.125 2.71z" fill="#FF6400"/>
        </g>
    </g>
</svg>
