<svg width="87" height="26" xmlns="http://www.w3.org/2000/svg">
    <g fill-rule="nonzero" fill="none">
        <path d="M35.488 17.767v-1.84h-4.387l-.397-.396v-.254h3.536l1.339-1.339v-1.852l-1.339-1.34h-4.036l-1.34 1.34v4.342l1.34 1.339h5.284zm-2.015-4.264h-2.769v-.52l.397-.397h2.242l.403.397v.247l-.273.273zm5.369 4.264v-4.784l.397-.397h1.78l.397.397v4.784h1.833v-5.681l-1.339-1.34h-3.562l-1.339 1.34v5.68h1.833zm12.46 0v-1.84h-4.387l-.396-.396v-.254h3.536l1.339-1.339v-1.852l-1.34-1.34h-4.036l-1.339 1.34v4.342l1.339 1.339h5.285zm-2.014-4.264h-2.77v-.52l.397-.397h2.243l.403.397v.247l-.273.273zm6.46 4.264V12.58h2.035v-1.833h-2.034v-.728l.286-.293h1.748v-1.71h-2.535l-1.339 1.34v1.39h-1.313v1.834h1.313v5.187h1.84zm6.39 0V12.58h2.035v-1.833h-2.035v-.728l.286-.293h1.749v-1.71h-2.535l-1.34 1.34v1.39h-1.312v1.834h1.313v5.187h1.839zm8.06 0v-1.84h-1.566V12.58h1.612v-1.833h-1.612V8.966h-1.84v1.78h-1.618v1.834h1.618v5.187h3.406zm8.099 0v-1.84H73.91l-.397-.396v-.254h3.536l1.339-1.339v-1.852l-1.339-1.34h-4.036l-1.34 1.34v4.342l1.34 1.339h5.284zm-2.015-4.264h-2.769v-.52l.397-.397h2.242l.403.397v.247l-.273.273zm10.16 4.264v-1.84h-4.388l-.396-.396v-.254h3.536l1.339-1.339v-1.852l-1.34-1.34h-4.036l-1.339 1.34v4.342l1.339 1.339h5.285zm-2.015-4.264h-2.77v-.52l.397-.397h2.243l.403.397v.247l-.273.273z" fill="#FFF"/>
        <path d="m11.646.03.08.037 10.968 6.269a.508.508 0 0 1 .248.35l.008.09v12.287c0 .15-.067.29-.179.386l-.072.052-10.967 6.43a.508.508 0 0 1-.432.038l-.082-.039L.25 19.5a.508.508 0 0 1-.243-.349L0 19.063V6.777c0-.152.068-.294.182-.39l.074-.051L11.223.067a.508.508 0 0 1 .423-.037zM2.73 19.776l8.238 4.83V20.53l-8.238-.755zm17.492 0-8.238.755v4.075l8.238-4.83zM5.433 10.62l-4.129 8.007 9.24.846-1.115-1.93a4.984 4.984 0 0 1-2.905-5.032l-1.09-1.891zm12.083 0-1.076 1.864a4.984 4.984 0 0 1-2.926 5.07l-1.11 1.92 9.241-.847-4.129-8.007zm-6.683 7.322.642 1.11.64-1.107a5.032 5.032 0 0 1-1.282-.003zM1.016 7.65v9.32L4.733 9.76 1.016 7.65zm20.918 0L18.216 9.76l3.718 7.21V7.649zM11.484 9.1a3.9 3.9 0 1 0 0 7.8 3.9 3.9 0 0 0 0-7.8zm1.067 1.742.76.759v1.05l-.76.758h-2.003v.144l.224.225h2.486v1.042h-2.994l-.759-.759v-2.46l.759-.759h2.287zm-.195.365h-1.904l-.608.607v2.056l.586.585h2.438v-.302h-2.295l-.427-.423v-.674h2.236l.556-.55v-.717l-.582-.582zm-.144.305.42.413v.468l-.368.368h-2.118v-.807l.45-.442h1.616zm-.169.372h-1.27l-.225.225v.295h1.569l.154-.155v-.14l-.228-.225zm-4.59-1.817H6.288l.591 1.025c.152-.365.346-.71.576-1.025zm9.21 0h-1.15c.226.311.418.649.568 1.008l.581-1.008zM11.474 1.42 6.36 9.05h2.083a4.962 4.962 0 0 1 3.04-1.034c1.145 0 2.2.386 3.04 1.034h2.067L11.475 1.42zm1.626.602 4.6 6.863 3.715-2.11-8.315-4.753zm-3.253 0L1.534 6.775l3.715 2.11 4.6-6.863z" fill="#00FF64"/>
    </g>
</svg>
