<svg width="28" height="28" xmlns="http://www.w3.org/2000/svg">
    <g fill="#7D929E" fill-rule="nonzero">
        <path d="M26.689 9.384H24.06V6.889h2.629a1.248 1.248 0 0 1 0 2.495zM26.689 15.216H24.06V12.72h2.629a1.248 1.248 0 1 1 0 2.496zM26.689 21.048H24.06v-2.495h2.629a1.248 1.248 0 1 1 0 2.495zM1.311 9.384H3.94V6.889H1.31a1.248 1.248 0 0 0 0 2.495zM1.311 15.216H3.94V12.72H1.31a1.248 1.248 0 1 0 0 2.496zM1.311 21.048H3.94v-2.495H1.31a1.248 1.248 0 0 0 0 2.495zM9.416 1.28v2.628H6.92V1.28a1.248 1.248 0 0 1 2.496 0zM15.247 1.28v2.628h-2.495V1.28a1.248 1.248 0 1 1 2.495 0zM21.08 1.28v2.628h-2.496V1.28a1.248 1.248 0 1 1 2.496 0zM9.398 26.657V24.03H6.903v2.628a1.248 1.248 0 1 0 2.495 0zM15.23 26.657V24.03h-2.495v2.628a1.248 1.248 0 1 0 2.495 0zM21.08 26.657V24.03h-2.496v2.628a1.248 1.248 0 0 0 2.496 0z"/>
        <path d="M22.148 3.908c1.056 0 1.913.856 1.913 1.913v16.295a1.913 1.913 0 0 1-1.914 1.913H5.853a1.913 1.913 0 0 1-1.913-1.913V5.82c0-1.057.856-1.913 1.913-1.913h16.295zm-.646 1.602H6.498a.956.956 0 0 0-.956.956V21.47c0 .528.428.957.956.957h15.004a.957.957 0 0 0 .957-.957V6.466a.956.956 0 0 0-.957-.956z"/>
        <path d="M19.559 10.546h-5.3a1.012 1.012 0 0 1 0-2.025h5.3a1.012 1.012 0 0 1 0 2.025zM17.62 13.502h-5.3a1.012 1.012 0 0 1 0-2.024h5.3a1.012 1.012 0 0 1 0 2.024zM15.68 16.459h-5.3a1.012 1.012 0 0 1 0-2.025h5.3a1.012 1.012 0 0 1 0 2.025zM13.742 19.415h-5.3a1.012 1.012 0 0 1 0-2.024h5.3a1.012 1.012 0 0 1 0 2.024z"/>
    </g>
</svg>
