<svg width="40" height="40" xmlns="http://www.w3.org/2000/svg">
    <g fill="none" fill-rule="evenodd">
        <path d="M35.714 0A4.286 4.286 0 0 1 40 4.286v31.428A4.286 4.286 0 0 1 35.714 40H4.286A4.286 4.286 0 0 1 0 35.714V4.286A4.286 4.286 0 0 1 4.286 0h31.428zm0 2.143H4.286c-1.114 0-2.03.85-2.133 1.936l-.01.207v31.428c0 1.114.85 2.03 1.936 2.133l.207.01h31.428c1.114 0 2.03-.85 2.133-1.936l.01-.207V4.286c0-1.114-.85-2.03-1.936-2.133l-.207-.01z" fill="#00FF64" fill-rule="nonzero"/>
        <path d="M33.12 0A2.88 2.88 0 0 1 36 2.88v30.24A2.88 2.88 0 0 1 33.12 36H2.88A2.88 2.88 0 0 1 0 33.12V2.88A2.88 2.88 0 0 1 2.88 0h30.24zm0 2.16H2.88a.72.72 0 0 0-.708.59l-.012.13v30.24a.72.72 0 0 0 .59.708l.13.012h30.24a.72.72 0 0 0 .708-.59l.012-.13V2.88a.72.72 0 0 0-.59-.708l-.13-.012z" fill="#00FF64" fill-rule="nonzero"/>
        <rect stroke="#00FF64" stroke-width="2" fill="#00FF64" x="5" y="20" width="11" height="11" rx="2"/>
        <rect stroke="#00FF64" stroke-width="2" fill="#00FF64" x="20" y="20" width="11" height="11" rx="2"/>
        <rect stroke="#FAFF7A" stroke-width="2" fill="#FAFF7A" x="20" y="5" width="11" height="11" rx="2"/>
    </g>
</svg>
