<svg width="29" height="30" xmlns="http://www.w3.org/2000/svg">
    <g fill-rule="nonzero" fill="none">
        <circle fill="#FFD321" cx="13.748" cy="11.911" r="11.911"/>
        <g fill="#FFE470">
            <path d="M4.098 18.88 0 25.984l4.783-.254L6.957 30l3.791-6.573a11.9 11.9 0 0 1-6.65-4.547zM23.421 18.844a11.903 11.903 0 0 1-6.632 4.571L20.593 30l2.173-4.27 4.783.254-4.128-7.14z"/>
        </g>
        <circle fill="#FF9F00" cx="13.748" cy="11.911" r="8.634"/>
        <path d="M19.665 10.978a.451.451 0 0 0-.248-.767l-3.407-.496a.444.444 0 0 1-.337-.248L14.15 6.378a.45.45 0 0 0-.81 0l-1.517 3.089a.469.469 0 0 1-.337.248l-3.407.496a.451.451 0 0 0-.248.767l2.462 2.404a.455.455 0 0 1 .13.396l-.579 3.39a.45.45 0 0 0 .656.472l3.047-1.6a.44.44 0 0 1 .42 0l3.047 1.6a.452.452 0 0 0 .655-.473l-.584-3.39a.444.444 0 0 1 .13-.395l2.45-2.404z" fill="#FFF"/>
    </g>
</svg>
