<svg width="29" height="31" xmlns="http://www.w3.org/2000/svg">
    <g fill-rule="nonzero" fill="none">
        <circle fill="#FFD321" cx="14.206" cy="12.308" r="12.308"/>
        <g fill="#FFE470">
            <path d="M4.235 19.51 0 26.85l4.943-.262L7.189 31l3.917-6.792a12.296 12.296 0 0 1-6.871-4.699zM24.202 19.473a12.3 12.3 0 0 1-6.853 4.723L21.279 31l2.246-4.412 4.943.262-4.266-7.377z"/>
        </g>
        <circle fill="#FF9F00" cx="14.206" cy="12.308" r="8.922"/>
        <path d="M20.32 11.344a.466.466 0 0 0-.255-.793l-3.521-.513a.46.46 0 0 1-.348-.256L14.62 6.591a.465.465 0 0 0-.836 0l-1.568 3.191a.485.485 0 0 1-.348.256l-3.521.513a.466.466 0 0 0-.256.793l2.544 2.484a.47.47 0 0 1 .135.409l-.598 3.503a.465.465 0 0 0 .677.488l3.149-1.654a.455.455 0 0 1 .433 0l3.149 1.654a.467.467 0 0 0 .677-.488l-.604-3.503a.46.46 0 0 1 .134-.409l2.533-2.484z" fill="#FFF"/>
    </g>
</svg>
