<svg width="26" height="26" xmlns="http://www.w3.org/2000/svg">
    <g fill-rule="nonzero" fill="none">
        <path d="M23.606 9.79h-.552a10.5 10.5 0 0 0-.676-1.63l.39-.39a2.393 2.393 0 0 0 .001-3.386l-1.153-1.153a2.393 2.393 0 0 0-3.385 0l-.392.391a10.506 10.506 0 0 0-1.63-.676v-.553A2.396 2.396 0 0 0 13.816 0h-1.632a2.396 2.396 0 0 0-2.393 2.393v.553c-.561.179-1.107.405-1.63.676l-.391-.39a2.393 2.393 0 0 0-3.385-.001L3.23 4.384a2.394 2.394 0 0 0 0 3.386l.391.39a10.497 10.497 0 0 0-.676 1.63h-.552A2.396 2.396 0 0 0 0 12.185v1.632a2.396 2.396 0 0 0 2.394 2.393h.552a10.5 10.5 0 0 0 .676 1.63l-.39.391a2.393 2.393 0 0 0-.001 3.386l1.153 1.153c.92.922 2.438.948 3.385 0l.392-.391c.523.27 1.069.497 1.63.676v.553A2.396 2.396 0 0 0 12.184 26h1.632a2.396 2.396 0 0 0 2.393-2.393v-.553c.562-.179 1.107-.405 1.63-.676l.391.39a2.393 2.393 0 0 0 3.385.001l1.154-1.153a2.394 2.394 0 0 0 0-3.386l-.391-.39c.271-.525.497-1.07.677-1.63h.552A2.396 2.396 0 0 0 26 13.815v-1.632a2.396 2.396 0 0 0-2.394-2.393zM13 18.658A5.663 5.663 0 0 1 7.343 13 5.663 5.663 0 0 1 13 7.343 5.663 5.663 0 0 1 18.657 13 5.663 5.663 0 0 1 13 18.657z" fill="#FF9F00"/>
        <path d="M23.606 9.79h-.552a10.5 10.5 0 0 0-.676-1.63l.39-.39a2.393 2.393 0 0 0 .001-3.386l-1.153-1.153a2.393 2.393 0 0 0-3.385 0l-.392.391a10.506 10.506 0 0 0-1.63-.676v-.553A2.396 2.396 0 0 0 13.816 0H13v7.343A5.663 5.663 0 0 1 18.657 13 5.663 5.663 0 0 1 13 18.657V26h.816a2.396 2.396 0 0 0 2.393-2.393v-.553c.561-.179 1.107-.405 1.63-.676l.391.39a2.393 2.393 0 0 0 3.385.001l1.154-1.153a2.394 2.394 0 0 0 0-3.386l-.391-.39c.27-.525.497-1.07.676-1.63h.552A2.396 2.396 0 0 0 26 13.815v-1.632a2.396 2.396 0 0 0-2.394-2.393z" fill="#FFE470"/>
    </g>
</svg>
