<svg width="28" height="29" xmlns="http://www.w3.org/2000/svg">
    <g fill-rule="nonzero" stroke="#7C929E" fill="none">
        <path d="M24.818 1.036H3.388A1.39 1.39 0 0 0 2 2.425v21.428a1.39 1.39 0 0 0 1.374 1.388v1.462c0 .239.194.433.433.433h2.945a.433.433 0 0 0 .433-.433v-1.46h13.836v1.46c0 .239.194.433.433.433H24.4a.433.433 0 0 0 .433-.433V25.24a1.39 1.39 0 0 0 1.373-1.388V2.425a1.39 1.39 0 0 0-1.388-1.39zM6.319 27.17H4.24v-1.927h2.08v1.927zm15.568 0v-1.927h2.08v1.928l-2.08-.001zm3.454-3.317a.523.523 0 0 1-.523.523H3.388a.523.523 0 0 1-.522-.523V2.425c0-.29.234-.523.523-.523h21.429c.288 0 .522.234.523.523v21.428z" fill="#7C929E"/>
        <path d="M17.29 10.235a.357.357 0 0 0-.026-.031.39.39 0 0 0-.03-.026 4.466 4.466 0 0 0-6.273 0 .39.39 0 0 0-.03.026.357.357 0 0 0-.026.03 4.466 4.466 0 0 0 0 6.274l.024.03.03.024a4.466 4.466 0 0 0 6.275 0 .354.354 0 0 0 .03-.024.365.365 0 0 0 .024-.03 4.466 4.466 0 0 0 0-6.273h.002zm-.3 5.51-.677-.678c.298-.386.488-.845.552-1.329h.958a3.725 3.725 0 0 1-.833 2.006zm-6.618-2.007h.957c.064.484.254.943.552 1.33l-.677.676a3.725 3.725 0 0 1-.832-2.006zm.832-2.74.677.676a2.777 2.777 0 0 0-.552 1.33h-.957a3.727 3.727 0 0 1 .832-2.007zm2.893 4.433a2.06 2.06 0 1 1 0-4.12 2.06 2.06 0 0 1 0 4.12zm1.697-4.276a2.777 2.777 0 0 0-1.33-.552v-.958a3.728 3.728 0 0 1 2.007.833l-.677.677zm-2.064-.552a2.777 2.777 0 0 0-1.33.552l-.676-.677c.57-.47 1.27-.76 2.006-.833v.958zm-1.33 4.984c.387.297.846.488 1.33.552v.957a3.728 3.728 0 0 1-2.006-.832l.676-.677zm2.065.552a2.781 2.781 0 0 0 1.33-.552l.676.677c-.571.47-1.27.76-2.006.832v-.957zm2.4-3.136a2.777 2.777 0 0 0-.552-1.329l.677-.677c.47.571.76 1.27.833 2.006h-.958z" stroke-width=".5" fill="#80929D"/>
        <path d="M5.568 11.306V5.484c0-.22.174-.398.388-.398h16.407c.214 0 .388.178.388.398v15.403c0 .22-.174.399-.388.399H5.956a.393.393 0 0 1-.388-.399v-9.581zm.9 9.08h15.3V5.985h-15.3v14.401z" fill="#80929D"/>
    </g>
</svg>
