<svg width="30" height="30" xmlns="http://www.w3.org/2000/svg">
    <defs>
        <filter x="-13.3%" y="-13.3%" width="126.7%" height="126.7%" filterUnits="objectBoundingBox" id="a">
            <feOffset dx="2" dy="2" in="SourceAlpha" result="shadowOffsetOuter1"/>
            <feColorMatrix values="0 0 0 0 0 0 0 0 0 0 0 0 0 0 0 0 0 0 0.3 0" in="shadowOffsetOuter1" result="shadowMatrixOuter1"/>
            <feMerge>
                <feMergeNode in="shadowMatrixOuter1"/>
                <feMergeNode in="SourceGraphic"/>
            </feMerge>
        </filter>
    </defs>
    <g filter="url(#a)" fill-rule="nonzero" fill="none">
        <path d="M27.238 11.297h-.637a12.115 12.115 0 0 0-.78-1.88l.45-.452a2.762 2.762 0 0 0 .001-3.906l-1.33-1.33a2.762 2.762 0 0 0-3.907-.001l-.451.451a12.123 12.123 0 0 0-1.88-.78v-.637A2.765 2.765 0 0 0 15.94 0H14.06a2.765 2.765 0 0 0-2.762 2.762v.637c-.648.207-1.277.468-1.88.78l-.452-.45a2.761 2.761 0 0 0-3.906-.001l-1.33 1.33a2.762 2.762 0 0 0-.001 3.907l.451.451a12.112 12.112 0 0 0-.78 1.88h-.637A2.765 2.765 0 0 0 0 14.06v1.882a2.765 2.765 0 0 0 2.762 2.762h.637c.207.648.468 1.277.78 1.88l-.45.452a2.762 2.762 0 0 0-.001 3.906l1.33 1.33a2.762 2.762 0 0 0 3.907.001l.451-.451c.604.312 1.233.573 1.88.78v.637A2.765 2.765 0 0 0 14.06 30h1.882a2.765 2.765 0 0 0 2.762-2.762v-.637a12.111 12.111 0 0 0 1.88-.78l.452.45a2.761 2.761 0 0 0 3.906.001l1.33-1.33a2.762 2.762 0 0 0 .001-3.907l-.451-.451c.312-.605.573-1.233.78-1.881h.637A2.765 2.765 0 0 0 30 15.941v-1.883a2.765 2.765 0 0 0-2.762-2.761zM15 21.527A6.535 6.535 0 0 1 8.473 15c0-3.6 2.928-6.527 6.527-6.527 3.6 0 6.527 2.928 6.527 6.527 0 3.6-2.928 6.527-6.527 6.527z" fill="#FF6400"/>
        <path d="M27.238 11.297h-.637a12.115 12.115 0 0 0-.78-1.88l.45-.452a2.762 2.762 0 0 0 .001-3.906l-1.33-1.33a2.762 2.762 0 0 0-3.907-.001l-.451.451a12.123 12.123 0 0 0-1.88-.78v-.637A2.765 2.765 0 0 0 15.94 0H15v8.473c3.6 0 6.527 2.928 6.527 6.527 0 3.6-2.928 6.527-6.527 6.527V30h.941a2.765 2.765 0 0 0 2.762-2.762v-.637a12.111 12.111 0 0 0 1.88-.78l.452.45a2.761 2.761 0 0 0 3.906.001l1.33-1.33a2.762 2.762 0 0 0 .001-3.907l-.451-.451c.312-.605.573-1.233.78-1.881h.637A2.765 2.765 0 0 0 30 15.941v-1.883a2.765 2.765 0 0 0-2.762-2.761z" fill="#FFE300"/>
    </g>
</svg>
