<svg width="172" height="172" xmlns="http://www.w3.org/2000/svg" xmlns:xlink="http://www.w3.org/1999/xlink">
    <defs>
        <filter x="-.6%" y="-.6%" width="102.4%" height="102.4%" filterUnits="objectBoundingBox" id="a">
            <feOffset dx="2" dy="2" in="SourceAlpha" result="shadowOffsetOuter1"/>
            <feColorMatrix values="0 0 0 0 0.117647059 0 0 0 0 0.8 0 0 0 0 0.329411765 0 0 0 1 0" in="shadowOffsetOuter1"/>
        </filter>
        <circle id="b" cx="84.5" cy="85.5" r="83.5"/>
    </defs>
    <g fill="none" fill-rule="evenodd">
        <g>
            <use fill="#000" filter="url(#a)" xlink:href="#b"/>
            <use fill="#081D11" xlink:href="#b"/>
            <use fill-opacity=".1" fill="#FFF" xlink:href="#b"/>
        </g>
        <g fill-rule="nonzero">
            <path d="M80.715 41.905a12.04 12.04 0 0 0-15.368 1.992c-5.397 5.879-5.397 14.91 0 20.787L84 85l18.653-20.316c5.396-5.877 5.397-14.908 0-20.787a12.04 12.04 0 0 0-15.368-1.992 6.087 6.087 0 0 1-6.57 0z" fill="#00FF64"/>
            <path d="M102.653 43.897a12.04 12.04 0 0 0-15.368-1.992 6.08 6.08 0 0 1-3.285.962V85l18.653-20.316c5.396-5.877 5.396-14.908 0-20.787z" fill="#00BF4A"/>
            <path d="M87.285 128.095a12.04 12.04 0 0 0 15.368-1.992c5.397-5.879 5.396-14.91 0-20.787L84 85l-18.653 20.316c-5.397 5.877-5.397 14.908 0 20.787a12.04 12.04 0 0 0 15.368 1.992 6.087 6.087 0 0 1 6.57 0z" fill="#00FF64"/>
            <path d="M65.347 126.103a12.04 12.04 0 0 0 15.368 1.992 6.08 6.08 0 0 1 3.285-.962V85l-18.653 20.316c-5.397 5.877-5.397 14.908 0 20.787z" fill="#00BF4A"/>
            <path d="M127.095 81.715a12.04 12.04 0 0 0-1.992-15.368c-5.879-5.396-14.91-5.396-20.787 0L84 85l20.316 18.653c5.877 5.396 14.908 5.397 20.787 0a12.04 12.04 0 0 0 1.992-15.368 6.087 6.087 0 0 1 0-6.57z" fill="#00FF64"/>
            <path d="M125.103 103.653a12.04 12.04 0 0 0 1.992-15.368 6.08 6.08 0 0 1-.962-3.285H84l20.316 18.653c5.877 5.396 14.908 5.396 20.787 0z" fill="#00BF4A"/>
            <path d="M40.905 88.285a12.04 12.04 0 0 0 1.992 15.368c5.879 5.397 14.91 5.396 20.787 0L84 85 63.684 66.347c-5.877-5.397-14.908-5.397-20.787 0a12.04 12.04 0 0 0-1.992 15.368 6.087 6.087 0 0 1 0 6.57z" fill="#00FF64"/>
            <path d="M42.897 66.347a12.04 12.04 0 0 0-1.992 15.368A6.08 6.08 0 0 1 41.867 85H84L63.684 66.347c-5.877-5.397-14.908-5.397-20.787 0z" fill="#00BF4A"/>
        </g>
    </g>
</svg>
