<svg id="eCvuV18TD4l1" xmlns="http://www.w3.org/2000/svg" xmlns:xlink="http://www.w3.org/1999/xlink" viewBox="0 0 40 40" shape-rendering="geometricPrecision" text-rendering="geometricPrecision"><style><![CDATA[#eCvuV18TD4l5_to {animation: eCvuV18TD4l5_to__to 3000ms linear infinite normal forwards}@keyframes eCvuV18TD4l5_to__to { 0% {transform: translate(10.5px,25.5px)} 6.666667% {transform: translate(10.5px,10.5px)} 13.333333% {transform: translate(10.5px,10.5px)} 20% {transform: translate(10.5px,10.5px)} 26.666667% {transform: translate(25.5px,10.429812px)} 33.333333% {transform: translate(25.5px,10.429812px)} 40% {transform: translate(25.5px,10.429812px)} 46.666667% {transform: translate(25.5px,25.5px)} 53.333333% {transform: translate(25.5px,25.5px)} 60% {transform: translate(25.5px,25.5px)} 66.666667% {transform: translate(10.5px,25.5px)} 73.333333% {transform: translate(10.5px,25.5px)} 80% {transform: translate(10.5px,25.5px)} 100% {transform: translate(10.5px,25.5px)}} #eCvuV18TD4l6_to {animation: eCvuV18TD4l6_to__to 3000ms linear infinite normal forwards}@keyframes eCvuV18TD4l6_to__to { 0% {transform: translate(25.571241px,25.468854px)} 6.666667% {transform: translate(25.571241px,25.468854px)} 13.333333% {transform: translate(10.5px,25.5px)} 20% {transform: translate(10.5px,25.5px)} 26.666667% {transform: translate(10.5px,25.5px)} 33.333333% {transform: translate(10.5px,10.429812px)} 40% {transform: translate(10.5px,10.429812px)} 46.666667% {transform: translate(10.5px,10.429812px)} 53.333333% {transform: translate(25.5px,10.499999px)} 60% {transform: translate(25.5px,10.499999px)} 66.666667% {transform: translate(25.5px,10.499999px)} 73.333333% {transform: translate(25.5px,25.5px)} 80% {transform: translate(25.5px,25.5px)} 100% {transform: translate(25.5px,25.5px)}} #eCvuV18TD4l7_to {animation: eCvuV18TD4l7_to__to 3000ms linear infinite normal forwards}@keyframes eCvuV18TD4l7_to__to { 0% {transform: translate(25.5px,10.5px)} 13.333333% {transform: translate(25.5px,10.5px)} 20% {transform: translate(25.5px,25.5px)} 26.666667% {transform: translate(25.5px,25.5px)} 33.333333% {transform: translate(25.5px,25.5px)} 40% {transform: translate(10.5px,25.5px)} 46.666667% {transform: translate(10.5px,25.5px)} 53.333333% {transform: translate(10.5px,25.5px)} 60% {transform: translate(10.5px,10.499999px)} 66.666667% {transform: translate(10.5px,10.499999px)} 73.333333% {transform: translate(10.5px,10.429811px)} 80% {transform: translate(25.5px,10.429811px)} 100% {transform: translate(25.5px,10.429811px)}}]]></style><g id="eCvuV18TD4l2"><path id="eCvuV18TD4l3" d="M35.714,0C36.850718,0,37.940879,0.451559,38.74466,1.25534C39.548441,2.059121,40,3.149282,40,4.286L40,35.714C40,36.850718,39.548441,37.940879,38.74466,38.74466C37.940879,39.548441,36.850718,40,35.714,40L4.286,40C3.149282,40,2.059121,39.548441,1.25534,38.74466C0.451559,37.940879,0,36.850718,0,35.714L0,4.286C0,1.918908,1.918908,0,4.286,0L35.714,0ZM35.714,2.143L4.286,2.143C3.172,2.143,2.256,2.993,2.153,4.079L2.143,4.286L2.143,35.714C2.143,36.828,2.993,37.744,4.079,37.847L4.286,37.857L35.714,37.857C36.828,37.857,37.744,37.007,37.847,35.921L37.857,35.714L37.857,4.286C37.857,3.172,37.007,2.256,35.921,2.153L35.714,2.143Z" fill="rgb(0,255,100)" stroke="none" stroke-width="1"/><path id="eCvuV18TD4l4" d="M33.12,0C33.883823,0,34.616363,0.303428,35.156468,0.843532C35.696572,1.383637,36,2.116177,36,2.88L36,33.12C36,33.883823,35.696572,34.616363,35.156468,35.156467C34.616363,35.696572,33.883824,36,33.12,36L2.88,36C2.116177,36,1.383637,35.696572,0.843532,35.156468C0.303428,34.616363,0,33.883823,0,33.12L0,2.88C0,1.28942,1.28942,0,2.88,0L33.12,0ZM33.12,2.16L2.88,2.16C2.532558,2.16008,2.234733,2.408268,2.172,2.75L2.16,2.88L2.16,33.12C2.16008,33.467442,2.408268,33.765267,2.75,33.828L2.88,33.84L33.12,33.84C33.467442,33.83992,33.765267,33.591732,33.828,33.25L33.84,33.12L33.84,2.88C33.83992,2.532558,33.591732,2.234733,33.25,2.172L33.12,2.16Z" fill="rgb(0,255,100)" stroke="none" stroke-width="1"/><g id="eCvuV18TD4l5_to" transform="translate(10.5,25.5)"><rect id="eCvuV18TD4l5" width="11" height="11" rx="2" ry="2" transform="translate(-5.5,-5.5)" fill="rgb(0,255,100)" fill-rule="evenodd" stroke="rgb(0,255,100)" stroke-width="2"/></g><g id="eCvuV18TD4l6_to" transform="translate(25.571241,25.468854)"><rect id="eCvuV18TD4l6" width="11" height="11" rx="2" ry="2" transform="translate(-5.5,-5.5)" fill="rgb(0,255,100)" fill-rule="evenodd" stroke="rgb(0,255,100)" stroke-width="2"/></g><g id="eCvuV18TD4l7_to" transform="translate(25.5,10.5)"><rect id="eCvuV18TD4l7" width="11" height="11" rx="2" ry="2" transform="translate(-5.5,-5.5)" fill="rgb(250,255,122)" fill-rule="evenodd" stroke="rgb(250,255,122)" stroke-width="2"/></g></g></svg>