<?xml version="1.0" encoding="UTF-8"?>
<svg width="12px" height="12px" viewBox="0 0 12 12" version="1.1" xmlns="http://www.w3.org/2000/svg" xmlns:xlink="http://www.w3.org/1999/xlink">
    <title>icon-close-small</title>
    <g id="v2" stroke="none" stroke-width="1" fill="none" fill-rule="evenodd">
        <g id="icon-close-small" fill="#8DA1AD" fill-rule="nonzero">
            <path d="M6,0 C9.314,0 12,2.686 12,6 C12,9.314 9.314,12 6,12 C2.686,12 0,9.314 0,6 C0,2.686 2.686,0 6,0 Z M3.917,3.917 C3.687,4.147 3.687,4.52 3.917,4.75 L5.166,6 L3.916,7.25 C3.712,7.455 3.689,7.772 3.848,8.002 L3.917,8.083 C4.147,8.313 4.52,8.313 4.75,8.083 L6,6.833 L7.25,8.083 C7.48,8.313 7.853,8.313 8.083,8.083 C8.313,7.853 8.313,7.48 8.083,7.25 L6.833,6 L8.083,4.75 C8.288,4.545 8.311,4.228 8.152,3.998 L8.083,3.917 C7.853,3.687 7.48,3.687 7.25,3.917 L6,5.166 L4.75,3.916 C4.52,3.686 4.147,3.686 3.917,3.916 L3.917,3.917 Z" id="Shape"></path>
        </g>
    </g>
</svg>