<?xml version="1.0" encoding="UTF-8"?>
<svg width="14px" height="12px" viewBox="0 0 14 12" version="1.1" xmlns="http://www.w3.org/2000/svg" xmlns:xlink="http://www.w3.org/1999/xlink">
    <title>icon-delete</title>
    <g id="v2" stroke="none" stroke-width="1" fill="none" fill-rule="evenodd">
        <g id="settings-v3-beam-node" transform="translate(-794.000000, -581.000000)" fill="#032E49" fill-rule="nonzero">
            <g id="available" transform="translate(552.000000, 183.000000)">
                <g id="Group-3" transform="translate(211.000000, 385.000000)">
                    <g id="icon-done" transform="translate(30.000000, 11.000000)">
                        <path d="M14.5373916,3.03790577 C13.8294328,2.55227587 12.5315556,3.2523 11.953513,3.9313 L6.66015454,10.1382 L3.49655503,7.44069008 C2.81913951,6.86249008 2.11211589,6.76519008 1.5333735,7.44069008 C0.953231488,8.11759008 1.23943078,8.8558 1.91474687,9.4354 L5.78679238,12.7618 C6.08211196,13.0124 6.45231114,13.1517 6.83650651,13.1517 C6.8798947,13.1517 6.91978383,13.1503 6.96387183,13.1461 C7.38865614,13.1132 7.7868477,12.9109 8.06397223,12.5854 L14.4084444,5.1465 C14.9836878,4.4696 15.2453505,3.52353567 14.5373916,3.03790577 Z"></path>
                    </g>
                </g>
            </g>
        </g>
    </g>
</svg>