<svg xmlns="http://www.w3.org/2000/svg" width="30" height="30" viewBox="0 0 30 30">
    <g fill="none" fill-rule="evenodd">
        <g>
            <g>
                <g>
                    <g>
                        <g transform="translate(-587 -262) translate(552 227) translate(20 20) translate(15 14) translate(2.4 .7)">
                            <rect width="25.385" height="25.385" y="1.113" fill="#0976FF" stroke="#0976FF" rx="1"/>
                            <path fill="#0976FF" fill-rule="nonzero" d="M5.923 29.959H3.308c-.553 0-1-.448-1-1v-2.462h4.615v2.462c0 .552-.448 1-1 1zM18.462 28.957v-2.46h4.615v2.462c0 .552-.447 1-1 1l-2.615-.001c-.553 0-1-.449-1-1z"/>
                            <path fill="#23C1FF" fill-rule="nonzero" d="M22.077 24.19H3.307c-.552 0-1-.448-1-1V4.42c0-.552.448-1 1-1h18.77c.552 0 1 .448 1 1v18.77c0 .552-.448 1-1 1z" transform="matrix(-1 0 0 1 25.385 0)"/>
                            <rect width="2.308" height="3.462" x="21.923" y="8.036" fill="#FFF" rx="1"/>
                            <rect width="2.308" height="3.462" x="21.923" y="16.113" fill="#FFF" rx="1"/>
                            <path fill="#FFF" fill-rule="nonzero" stroke="#FFF" stroke-width=".4" d="M16.488 10.614l-.03-.036c-.01-.01-.022-.02-.035-.029-2.006-1.98-5.23-1.98-7.237 0l-.036.03c-.01.01-.02.023-.03.035-1.979 2.007-1.979 5.232 0 7.238l.03.035c.01.01.022.02.033.028 2.007 1.981 5.234 1.981 7.24 0 .013-.009.024-.018.035-.028.01-.011.02-.023.028-.035 1.98-2.006 1.98-5.231 0-7.238h.002zm-.345 6.357l-.781-.78c.343-.447.563-.976.637-1.534h1.104c-.083.85-.417 1.655-.96 2.314h0zm-7.637-2.314H9.61c.073.558.293 1.087.636 1.533l-.78.781c-.544-.659-.878-1.464-.961-2.314zm.96-3.163l.781.781c-.343.447-.563.976-.636 1.534H8.506c.083-.85.417-1.656.96-2.315h0zm3.339 5.116c-.962 0-1.83-.58-2.197-1.468-.368-.888-.165-1.91.515-2.59.68-.68 1.703-.884 2.591-.516.889.368 1.468 1.235 1.468 2.197-.002 1.312-1.065 2.375-2.377 2.377h0zm1.957-4.934c-.446-.344-.975-.563-1.534-.637V9.934c.85.083 1.656.418 2.315.96l-.78.782zm-2.381-.637c-.559.074-1.088.293-1.534.637l-.781-.781c.659-.543 1.465-.878 2.315-.961v1.105zm-1.534 5.75c.446.344.975.564 1.534.638v1.104c-.85-.083-1.656-.417-2.315-.96l.78-.781zm2.381.638c.559-.074 1.088-.294 1.534-.637l.781.78c-.659.544-1.465.878-2.315.961v-1.104zm2.77-3.618c-.073-.558-.293-1.087-.636-1.534l.78-.781c.544.66.878 1.465.961 2.315H16z"/>
                        </g>
                    </g>
                </g>
            </g>
        </g>
    </g>
</svg>
