<svg xmlns="http://www.w3.org/2000/svg" width="24" height="24" viewBox="0 0 24 24">
    <g fill="none" fill-rule="evenodd">
        <g fill="#FFF" fill-rule="nonzero">
            <g>
                <g>
                    <path d="M20.654 4H3.346C2.329 4 1.5 4.829 1.5 5.846v12.308C1.5 19.168 2.326 20 3.346 20h17.308c1.014 0 1.846-.826 1.846-1.846V5.846C22.5 4.832 21.674 4 20.654 4zM20.4 5.23l-8.36 8.363-8.432-8.362h16.792zM2.73 17.9V6.095l5.926 5.877-5.926 5.927zm.87.87l5.93-5.93 2.078 2.06c.24.238.629.237.868-.002l2.026-2.027 5.897 5.9H3.601zm17.67-.87L15.372 12l5.898-5.899v11.798z" transform="translate(-119 -215) translate(90 193) translate(29 22)"/>
                </g>
            </g>
        </g>
    </g>
</svg>
