<svg xmlns="http://www.w3.org/2000/svg" width="24" height="34" viewBox="0 0 24 34">
    <g fill="none" fill-rule="evenodd">
        <g fill="#FFF" fill-rule="nonzero">
            <g>
                <g>
                    <path d="M21.29 18.706c-.64-1.447-1.524-2.849-2.642-4.16-1.352-1.598-2.7-2.665-3.385-3.16l2.592-4.72c.127-.234.086-.523-.112-.708-.67-.644-1.382-.958-2.175-.958-.727 0-1.393.27-1.972.509-.458.185-.89.364-1.24.364-.107 0-.198-.015-.29-.05-1.21-.434-2.14-.703-3.04-.703-1.138 0-2.108.449-3.059 1.407-.198.2-.228.514-.07.748l2.794 4.147c-.69.504-2.012 1.561-3.339 3.123C4.24 15.857 3.35 17.26 2.71 18.706c-.803 1.822-1.21 3.723-1.21 5.649C1.5 26.915 3.624 29 6.232 29h11.536c2.608 0 4.732-2.086 4.732-4.645 0-1.926-.407-3.827-1.21-5.649zM7.197 7.026c.59-.5 1.154-.719 1.83-.719.722 0 1.535.24 2.617.634.224.08.463.12.707.12.594 0 1.164-.23 1.707-.454.524-.215 1.022-.42 1.505-.42.233 0 .564.04.98.33l-2.439 4.45H9.855L7.197 7.027zm10.571 20.776H6.232c-1.937 0-3.512-1.546-3.512-3.447 0-3.199 1.194-6.232 3.542-9.017 1.484-1.76 2.994-2.854 3.451-3.173h4.564c.462.314 1.967 1.412 3.45 3.173 2.354 2.785 3.543 5.813 3.543 9.017.01 1.9-1.565 3.447-3.502 3.447z" transform="translate(-586 -298) translate(557 281) translate(29 17)"/>
                    <path d="M15.038 20.097h-5.13l1.37-1.408c.153-.157.154-.412.002-.57-.152-.158-.4-.159-.553-.002l-2.04 2.097c-.154.158-.154.414-.001.571l2.041 2.098c.153.157.4.156.553-.002.152-.158.151-.413-.001-.57l-1.37-1.408h5.129c.216 0 .39-.18.39-.403 0-.223-.174-.403-.39-.403z" transform="translate(-586 -298) translate(557 281) translate(29 17) rotate(-90 12 20.5)"/>
                </g>
            </g>
        </g>
    </g>
</svg>
